<?xml version="1.0" standalone="no"?>
<!DOCTYPE svg PUBLIC "-//W3C//DTD SVG 20010904//EN"
 "http://www.w3.org/TR/2001/REC-SVG-20010904/DTD/svg10.dtd">
<svg version="1.0" xmlns="http://www.w3.org/2000/svg"
 width="500.000000pt" height="500.000000pt" viewBox="0 0 500.000000 500.000000"
 preserveAspectRatio="xMidYMid meet">
<metadata>
Created by potrace 1.14, written by Peter Selinger 2001-2017
</metadata>
<g transform="translate(0.000000,500.000000) scale(0.100000,-0.100000)"
fill="#000000" stroke="none">
<path d="M2439 4975 c-24 -12 -69 -37 -99 -55 -30 -18 -70 -41 -87 -51 -18
-10 -162 -93 -320 -185 -159 -92 -308 -178 -333 -192 -39 -22 -92 -53 -265
-152 -16 -10 -172 -100 -345 -200 -173 -101 -381 -221 -462 -267 -80 -46 -158
-95 -172 -108 l-26 -24 0 -1243 c1 -972 3 -1247 13 -1259 7 -9 88 -60 179
-113 92 -52 213 -123 269 -156 55 -33 103 -60 105 -60 2 0 21 -11 42 -23 20
-13 57 -35 82 -49 25 -14 128 -74 230 -133 102 -59 201 -116 220 -127 47 -27
801 -463 842 -487 34 -20 94 -54 138 -77 14 -8 34 -14 45 -14 18 0 91 33 140
63 11 7 56 33 100 58 68 38 322 186 820 474 55 32 226 131 380 220 641 369
707 409 721 430 14 21 17 466 14 2392 0 82 -3 94 -24 120 -13 15 -41 37 -62
49 -22 11 -136 77 -254 145 -224 130 -589 342 -650 377 -19 11 -91 52 -160 92
-69 40 -138 80 -155 90 -16 9 -131 76 -255 147 -124 72 -241 139 -260 150 -19
11 -98 56 -175 101 -77 44 -152 83 -166 85 -15 3 -44 -4 -70 -18z"/>
</g>
</svg>
